HIERARCHY
ROOT Hips
{
	OFFSET 0.00000 0.00000 0.00000
	CHANNELS 6 Xposition Yposition Zposition Zrotation Yrotation Xrotation 
	JOINT LHipJoint
	{
		OFFSET 0 0 0
		CHANNELS 3 Zrotation Yrotation Xrotation
		JOINT LeftUpLeg
		{
			OFFSET 3.13874 -1.57224 1.49786
			CHANNELS 3 Zrotation Yrotation Xrotation
			JOINT LeftLeg
			{
				OFFSET 2.10955 -5.79594 0.00000
				CHANNELS 3 Zrotation Yrotation Xrotation
				JOINT LeftFoot
				{
					OFFSET 2.41843 -6.64458 0.00000
					CHANNELS 3 Zrotation Yrotation Xrotation
					JOINT LeftToeBase
					{
						OFFSET 0.04713 -0.12948 1.66229
						CHANNELS 3 Zrotation Yrotation Xrotation
						End Site
						{
							OFFSET 0.00000 -0.00000 0.85167
						}
					}
				}
			}
		}
	}
	JOINT RHipJoint
	{
		OFFSET 0 0 0
		CHANNELS 3 Zrotation Yrotation Xrotation
		JOINT RightUpLeg
		{
			OFFSET -3.13988 -1.57224 1.49786
			CHANNELS 3 Zrotation Yrotation Xrotation
			JOINT RightLeg
			{
				OFFSET -2.15006 -5.90725 0.00000
				CHANNELS 3 Zrotation Yrotation Xrotation
				JOINT RightFoot
				{
					OFFSET -2.34496 -6.44273 0.00000
					CHANNELS 3 Zrotation Yrotation Xrotation
					JOINT RightToeBase
					{
						OFFSET -0.08699 -0.23900 1.55223
						CHANNELS 3 Zrotation Yrotation Xrotation
						End Site
						{
							OFFSET -0.00000 -0.00000 0.80281
						}
					}
				}
			}
		}
	}
	JOINT LowerBack
	{
		OFFSET 0 0 0
		CHANNELS 3 Zrotation Yrotation Xrotation
		JOINT Spine
		{
			OFFSET 0.01292 1.96517 -0.16495
			CHANNELS 3 Zrotation Yrotation Xrotation
			JOINT Spine1
			{
				OFFSET 0.02122 1.88666 0.19706
				CHANNELS 3 Zrotation Yrotation Xrotation
				JOINT Neck
				{
					OFFSET 0 0 0
					CHANNELS 3 Zrotation Yrotation Xrotation
					JOINT Neck1
					{
						OFFSET -0.01683 1.81591 0.07903
						CHANNELS 3 Zrotation Yrotation Xrotation
						JOINT Head
						{
							OFFSET 0.00815 1.74013 -0.47700
							CHANNELS 3 Zrotation Yrotation Xrotation
							End Site
							{
								OFFSET -0.00204 1.83225 -0.16933
							}
						}
					}
				}
				JOINT LeftShoulder
				{
					OFFSET 0 0 0
					CHANNELS 3 Zrotation Yrotation Xrotation
					JOINT LeftArm
					{
						OFFSET 3.38482 1.41533 0.19802
						CHANNELS 3 Zrotation Yrotation Xrotation
						JOINT LeftForeArm
						{
							OFFSET 4.32712 -0.00000 0.00000
							CHANNELS 3 Zrotation Yrotation Xrotation
							JOINT LeftHand
							{
								OFFSET 3.28587 -0.00000 -0.00000
								CHANNELS 3 Zrotation Yrotation Xrotation
								JOINT LeftFingerBase
								{
									OFFSET 0 0 0
									CHANNELS 3 Zrotation Yrotation Xrotation
									JOINT LeftHandIndex1
									{
										OFFSET 0.43316 -0.00000 -0.00000
										CHANNELS 3 Zrotation Yrotation Xrotation
										End Site
										{
											OFFSET 0.34922 -0.00000 -0.00000
										}
									}
								}
								JOINT LThumb
								{
									OFFSET 0 0 0
									CHANNELS 3 Zrotation Yrotation Xrotation
									End Site
									{
										OFFSET 0.35456 -0.00000 0.35456
									}
								}
							}
						}
					}
				}
				JOINT RightShoulder
				{
					OFFSET 0 0 0
					CHANNELS 3 Zrotation Yrotation Xrotation
					JOINT RightArm
					{
						OFFSET -3.09725 1.62858 -0.14144
						CHANNELS 3 Zrotation Yrotation Xrotation
						JOINT RightForeArm
						{
							OFFSET -4.29104 -0.00000 0.00000
							CHANNELS 3 Zrotation Yrotation Xrotation
							JOINT RightHand
							{
								OFFSET -3.22720 -0.00000 -0.00000
								CHANNELS 3 Zrotation Yrotation Xrotation
								JOINT RightFingerBase
								{
									OFFSET 0 0 0
									CHANNELS 3 Zrotation Yrotation Xrotation
									JOINT RightHandIndex1
									{
										OFFSET -0.54362 -0.00000 -0.00000
										CHANNELS 3 Zrotation Yrotation Xrotation
										End Site
										{
											OFFSET -0.43828 -0.00000 -0.00000
										}
									}
								}
								JOINT RThumb
								{
									OFFSET 0 0 0
									CHANNELS 3 Zrotation Yrotation Xrotation
									End Site
									{
										OFFSET -0.44497 -0.00000 0.44497
									}
								}
							}
						}
					}
				}
			}
		}
	}
}
MOTION
Frames: 11
Frame Time: 0.0909091
0.00 0.00 0.00 0 0 0 0 0 0 -21 0 0 0 0 0 0 0 0 0 0 0 0 0 0 21 0 0 0 0 0 0 0 0 0 0 0 0 0 0 0 0 0 0 0 0 0 0 -16 0 0 21 0 0 11 0 0 0 -8 0 0 0 0 0 0 0 0 0 0 0 0 0 0 0 0 0 0 0 0 8 0 0 0 0 0 0 0 0 0 0 0 0 0 0 0 0 0
0.00 0.00 0.00 -175.7200 -27.9083 -170.9420 0.0000 0.0000 0.0000 -27.2398 -17.7575 -1.9170 0.3355 3.7225 10.2973 1.8813 10.4968 -31.4785 9.2702 -16.9785 -57.0199 0.0000 0.0000 0.0000 16.2128 15.1191 -9.1575 -0.3102 -3.5804 9.8990 -2.9769 -14.8207 -40.3108 -0.3316 -3.7010 10.2368 -4.5307 1.3387 8.1429 0.9809 0.8240 -9.2578 3.5177 0.7710 -14.9851 -12.3929 -7.1435 -16.3412 17.0957 -12.9721 24.2657 6.4105 -5.5455 12.8283 0.0000 0.0000 0.0000 -83.8924 8.7958 6.2531 13.1846 -21.5571 -2.5207 -0.0000 -0.0000 17.8974 29.8477 29.2557 15.6649 -7.1250 0.0000 -0.0000 -1.2411 62.8309 -0.5375 0.0000 0.0000 0.0000 68.0022 -15.3456 56.8361 -23.0393 34.1318 -7.1603 0.0000 -0.0000 -12.9157 -21.6201 -15.7934 6.1567 7.1250 -0.0000 -0.0000 5.7883 -46.8194 -0.2607
0.00 0.00 0.00 -178.1530 -22.9107 -173.5180 0.0000 0.0000 0.0000 -25.8077 -14.3011 -0.1119 0.4140 4.1301 11.4430 2.3916 10.3113 -34.3222 8.6427 -16.5722 -54.8459 0.0000 0.0000 0.0000 24.2438 26.0217 19.4724 -0.0632 1.6216 -4.4609 -7.0164 -17.6281 -56.9619 -0.5795 -4.8746 13.5512 -2.3683 1.6519 6.2659 1.2447 1.4987 -9.8463 2.4908 0.8095 -14.4715 -10.0581 -4.6497 -15.9473 10.7287 -8.5509 28.0375 4.3830 -4.0747 12.9087 -0.0000 -0.0000 0.0000 -84.2711 7.5951 26.8786 18.3970 -28.6626 -4.7381 -0.0000 -0.0000 9.0500 31.8733 26.8043 15.6634 -7.1250 0.0000 -0.0000 2.1701 60.7168 0.8315 -0.0000 -0.0000 0.0000 68.9855 -12.7516 55.3859 -26.5741 37.7700 -9.2371 0.0000 -0.0000 -14.9598 -25.4578 -14.9604 7.0064 7.1250 -0.0000 -0.0000 2.0108 -46.4556 -0.0723
0.00 0.00 0.00 -174.8650 -17.1815 -171.1720 0.0000 0.0000 0.0000 -5.3455 -24.8866 -3.7258 0.4899 4.4877 12.4531 2.0140 9.3473 -31.5078 11.5447 -18.1915 -64.5381 0.0000 0.0000 0.0000 50.3682 43.4495 29.5269 -0.3272 3.6767 -10.1688 -9.6541 -24.2205 -67.1445 -2.6565 -10.1171 29.3566 3.0258 1.5829 5.7973 2.2043 2.0560 -10.1942 0.4633 0.4827 -14.4355 -6.1574 -2.5648 -18.1422 6.1441 -5.8380 32.5422 2.3716 -3.1277 14.6375 -0.0000 -0.0000 0.0000 -81.4002 -12.4727 23.7209 15.5465 -24.9019 -3.4528 -0.0000 0.0000 -20.9236 50.5106 39.2394 37.5116 -7.1250 0.0000 -0.0000 41.9956 79.6455 34.5705 -0.0000 -0.0000 0.0000 63.0017 0.3336 63.0343 -25.0808 36.2865 -8.3377 0.0000 -0.0000 -40.8116 -26.4607 -29.4412 13.7472 7.1250 -0.0000 -0.0000 5.4569 -62.1286 -2.2766
0.00 0.00 0.00 -174.3250 -15.6057 -171.6780 0.0000 0.0000 0.0000 -5.3025 -26.0987 -0.0770 0.2625 3.2958 9.1034 1.4961 13.0468 -31.0396 11.2379 -18.0496 -63.5519 0.0000 0.0000 0.0000 51.7377 44.2841 30.3999 -0.3219 3.6471 -10.0859 -9.6036 -24.0003 -66.9309 -2.5463 -9.9216 28.7231 3.4445 1.6423 5.2546 2.4891 2.0813 -10.6951 0.5722 0.4093 -14.6942 -5.9182 -1.6149 -14.6222 6.0269 -4.7817 31.6780 2.4686 -2.8048 13.3663 -0.0000 -0.0000 0.0000 -73.1664 -26.9440 33.8829 48.6479 -52.4354 -25.0984 -0.0000 0.0000 -60.7318 57.6934 41.2186 46.1800 -7.1250 0.0000 -0.0000 82.9395 81.1548 73.9729 -0.0000 -0.0000 0.0000 58.7100 17.8494 44.1944 -59.5221 56.1812 -33.9437 0.0000 -0.0000 -77.9268 -50.1555 -26.3909 28.0422 7.1250 -0.0000 -0.0000 -28.6642 -65.5672 14.7811
0.00 0.00 0.00 -174.8010 -14.9619 -171.5650 0.0000 0.0000 0.0000 -6.5420 -27.0226 2.0905 0.1722 2.6733 7.3704 1.6960 13.7785 -32.8656 10.6287 -17.7486 -61.5698 0.0000 0.0000 0.0000 51.4030 44.5930 30.6507 -0.3150 3.6079 -9.9761 -9.5533 -23.9537 -66.7873 -2.5113 -9.8585 28.5196 2.7639 1.5608 5.1234 2.5341 1.8626 -10.8025 1.0459 0.3755 -14.7664 -5.4925 -1.2296 -13.5529 6.0994 -4.4715 31.3963 2.4692 -2.6586 12.9796 -0.0000 -0.0000 0.0000 -67.6027 -31.8988 37.1125 78.1323 -59.4611 -49.7408 -0.0000 0.0000 -65.4311 52.8160 39.6900 40.0925 -7.1250 0.0000 -0.0000 52.8392 80.3787 44.7241 -0.0000 -0.0000 0.0000 54.5469 23.6363 40.1913 -89.7536 59.9998 -59.7866 0.0000 -0.0000 -82.1199 -46.1771 -24.2780 23.1910 7.1250 -0.0000 -0.0000 -21.3017 -61.8005 8.9295
0.00 0.00 0.00 -175.3250 -14.5957 -171.5420 0.0000 0.0000 0.0000 -7.8223 -27.5852 3.7165 0.1246 2.2755 6.2676 1.8908 13.8877 -34.0803 10.1268 -17.4805 -59.9113 0.0000 0.0000 0.0000 50.9259 44.5770 30.8264 -0.3066 3.5600 -9.8420 -9.4539 -24.1192 -66.6077 -2.4221 -9.6949 27.9942 2.1476 1.3460 5.0891 2.5747 1.4866 -10.8445 1.5032 0.2676 -14.8138 -5.1160 -0.7485 -12.5944 5.9473 -3.9791 31.4543 2.4160 -2.4790 12.7462 -0.0000 0.0000 0.0000 -61.7345 -36.6299 38.2407 108.4897 -58.6680 -75.9409 -0.0000 0.0000 -68.2740 45.4674 37.5779 31.7936 -7.1250 0.0000 -0.0000 23.7784 76.6516 17.8402 -0.0000 0.0000 0.0000 48.8767 28.5934 36.9143 -117.9466 56.8327 -83.9451 0.0000 -0.0000 -81.6778 -38.4567 -18.7893 14.3488 7.1250 -0.0000 -0.0000 -10.8367 -53.1391 2.1901
0.00 0.00 0.00 -175.5320 -14.3742 -171.8620 0.0000 0.0000 0.0000 -8.7321 -27.5785 5.2832 0.0873 1.9053 5.2441 1.9280 14.3051 -34.6215 10.0347 -17.4293 -59.6042 0.0000 0.0000 0.0000 50.7202 44.3913 30.8209 -0.2703 3.3444 -9.2391 -9.2409 -24.0958 -66.0664 -2.4247 -9.6996 28.0094 1.8918 1.0485 5.0249 2.7172 1.0780 -10.6505 1.8673 0.1248 -14.5408 -4.6764 -0.0983 -11.1037 4.9153 -2.8851 31.0286 2.0947 -2.1126 12.1524 -0.0000 0.0000 0.0000 -56.8287 -42.2626 39.0011 133.2952 -51.5768 -96.4331 -0.0000 0.0000 -70.4399 38.1996 33.9401 23.7185 -7.1250 0.0000 -0.0000 8.7742 70.3780 5.3318 -0.0000 0.0000 0.0000 41.9136 33.2811 31.9785 -140.4260 47.8155 -101.8770 0.0000 -0.0000 -81.3258 -33.0537 -14.1388 9.0320 7.1250 -0.0000 -0.0000 -5.3375 -46.6374 0.2163
0.00 0.00 0.00 -175.5640 -14.5410 -172.7540 0.0000 0.0000 0.0000 -7.5034 -23.4421 1.6765 0.2221 3.0336 8.3723 1.1601 13.9601 -29.6527 11.3997 -18.1252 -64.0728 0.0000 0.0000 0.0000 48.4127 42.0934 28.0338 -0.2490 3.2107 -8.8659 -7.9739 -24.0708 -62.7981 -2.1625 -9.1966 26.4121 2.2803 0.2676 6.2601 3.3960 0.3413 -9.3616 2.4807 -0.1375 -13.7741 -1.2108 2.0823 -6.5385 0.4340 0.5251 30.1697 0.2362 -0.8394 10.7342 -0.0000 -0.0000 0.0000 -72.1684 -46.6206 62.2038 151.3334 -39.7227 -109.4530 -0.0000 0.0000 -39.0932 58.5275 34.7273 42.9419 -7.1250 0.0000 -0.0000 62.5711 76.2904 49.4627 -0.0000 -0.0000 0.0000 41.3744 39.9346 41.3170 -155.9399 35.2278 -112.2588 0.0000 -0.0000 -57.3741 -49.2214 -20.4120 22.0163 7.1250 -0.0000 -0.0000 -24.3001 -57.9560 8.0146
0.00 0.00 0.00 -175.5530 -14.5495 -172.7120 0.0000 0.0000 0.0000 -7.3903 -23.2260 1.4785 0.2323 3.1018 8.5623 1.3010 13.0356 -29.7671 11.1980 -18.0306 -63.4228 0.0000 0.0000 0.0000 48.3523 41.9195 27.9154 -0.2520 3.2298 -8.9191 -7.7954 -24.0445 -62.3120 -2.3145 -9.4925 27.3483 2.9613 0.7941 6.1998 2.4917 1.0893 -9.3586 0.9595 0.1047 -13.7107 -0.6219 0.7178 -7.0032 0.6200 -1.2441 28.6202 0.0397 -1.4266 10.2624 0.0000 -0.0000 0.0000 -63.8661 -43.0260 51.9719 148.7494 -41.9415 -107.7630 -0.0000 0.0000 -5.6400 58.0568 35.0881 42.6748 -7.1250 0.0000 -0.0000 61.7430 76.5849 49.0271 0.0000 -0.0000 0.0000 40.0770 30.5893 29.0466 -152.8359 38.3353 -110.3993 0.0000 -0.0000 -26.8914 -44.8276 -18.1225 17.1807 7.1250 -0.0000 -0.0000 -18.0195 -53.8371 4.0157
0.00 0.00 0.00 -175.3450 -15.1448 -171.6190 0.0000 0.0000 0.0000 -6.7106 -24.5319 0.8826 0.2152 2.9864 8.2410 1.4009 13.1700 -30.5368 11.1966 -18.0300 -63.4184 0.0000 0.0000 0.0000 47.9243 41.7404 26.6502 -0.2707 3.3469 -9.2462 -7.6662 -24.3013 -62.0958 -2.0431 -8.9553 25.6556 2.1205 0.5894 6.0514 3.4398 0.7708 -9.2177 2.5309 0.0920 -13.4858 -2.6039 -0.0191 -7.5631 1.7424 -1.8319 26.6501 0.7428 -1.6271 9.6810 0.0000 -0.0000 0.0000 -49.5739 -18.9358 3.9707 149.0232 -41.7161 -107.9456 -0.0000 -0.0000 41.4258 76.5090 38.9968 69.1306 -7.1250 0.0000 -0.0000 124.2166 -71.5555 -141.3625 0.0000 -0.0000 0.0000 34.9359 8.0765 -13.9483 -146.7727 43.5040 -106.4217 0.0000 0.0000 12.7874 -50.8024 -20.8068 23.5369 7.1250 -0.0000 -0.0000 -26.7217 -58.9432 9.5319
